<svg id="Capa_1" data-name="Capa 1" xmlns="http://www.w3.org/2000/svg" viewBox="0 0 423 298"><defs><style>.cls-1{fill:#fff;}.cls-2{font-size:36.19px;font-family:BernardMT-Condensed, Bernard MT Condensed;}.cls-3{fill:#eb62ff;}.cls-4{fill:none;stroke:#fff;stroke-miterlimit:10;stroke-width:8px;}.cls-5{fill:#a5a2a2;}</style></defs><title>caja1</title><rect class="cls-1" x="53" y="26" width="321" height="259"/><text class="cls-2" transform="translate(159.17 277.71)">Natural</text><rect x="52" y="26" width="322" height="215"/><rect class="cls-3" x="333.29" y="225.81" width="27.19" height="27.19"/><line class="cls-4" x1="347.11" y1="230.27" x2="347.11" y2="249.88"/><line class="cls-4" x1="337.3" y1="239.63" x2="356.47" y2="239.63"/><path class="cls-5" d="M135.4,221.06s14-44.8,64.4-56l-4.2-7,7,7s4.2-1.4,14-1.4c0,0,2.8-14,5.6-16.8l-1.4,16.8,4.2,1.4,8.4-11.2-4.2,11.2s46.2,7,63,50.4c0,0-25.9-18.9-55.3-6.3s-37.8,0-37.8,0-43.4-11.2-49,12.6Z"/><path class="cls-5" d="M149.4,124.46s30.8,8.4,43.4,35c0,0-37.8,2.8-63-29.4,0,0-5.6-9.8-9.8-12.6,0,0,4.2-15.4,36.4-9.8s39.2,46.2,39.2,46.2S163.4,120.26,149.4,124.46Z"/><path class="cls-5" d="M279.6,121.66s-30.8,8.4-43.4,35c0,0,37.8,2.8,63-29.4,0,0,5.6-9.8,9.8-12.6,0,0-4.2-15.4-36.4-9.8s-39.2,46.2-39.2,46.2S265.6,117.46,279.6,121.66Z"/><path class="cls-5" d="M208.37,80.21s20.63,35.43,8.21,71.12c0,0-37.13-31.48-31.2-83.65,0,0,3.7-14,2.38-20.36,0,0,17.72-10.32,42.15,23.81s-5.72,77.6-5.72,77.6S225,89,208.37,80.21Z"/></svg>